<svg width="24" height="24" viewBox="0 0 24 24" fill="none" xmlns="http://www.w3.org/2000/svg">
<path d="M16 21.0001V19.0001C16 17.9393 15.5786 16.9218 14.8284 16.1717C14.0783 15.4216 13.0609 15.0001 12 15.0001H6C4.93913 15.0001 3.92172 15.4216 3.17157 16.1717C2.42143 16.9218 2 17.9393 2 19.0001V21.0001" stroke="#8D9199" stroke-width="1.5" stroke-linecap="round" stroke-linejoin="round"/>
<path d="M9 11.0001C11.2091 11.0001 13 9.20926 13 7.00012C13 4.79098 11.2091 3.00012 9 3.00012C6.79086 3.00012 5 4.79098 5 7.00012C5 9.20926 6.79086 11.0001 9 11.0001Z" stroke="#8D9199" stroke-width="1.5" stroke-linecap="round" stroke-linejoin="round"/>
<path d="M19 8.00012V14.0001" stroke="#8D9199" stroke-width="1.5" stroke-linecap="round" stroke-linejoin="round"/>
<path d="M22 11.0001H16" stroke="#8D9199" stroke-width="1.5" stroke-linecap="round" stroke-linejoin="round"/>
</svg>
