<svg width="40" height="41" viewBox="0 0 40 41" fill="none" xmlns="http://www.w3.org/2000/svg">
<path fill-rule="evenodd" clip-rule="evenodd" d="M29.5313 21.1107C29.5313 20.7058 29.2775 20.3003 28.7905 20.204V20.1846C29.1804 20.0494 29.4531 19.6829 29.4531 19.297C29.4531 18.641 28.9463 18.2937 28.0498 18.2937C27.5236 18.2937 26.9778 18.2937 26.6272 18.3129V22.3453C27.1534 22.3453 27.6016 22.3645 27.8549 22.3645C29.1218 22.3647 29.5313 21.6893 29.5313 21.1107ZM28.5956 19.4128C28.5956 19.7795 28.3225 19.9916 27.7571 19.9916H27.4456V18.9305C27.582 18.9305 27.7377 18.9111 27.9132 18.9111C28.4201 18.9113 28.5956 19.1235 28.5956 19.4128ZM28.6736 21.1299C28.6736 21.4966 28.4009 21.7281 27.8743 21.7281C27.6987 21.7281 27.543 21.7089 27.4459 21.7089V20.5702H27.7965C28.3225 20.5702 28.6736 20.7248 28.6736 21.1299ZM32.4937 22.3456C32.4743 22.114 32.4743 21.8243 32.4743 21.5932V20.3391C32.4743 19.7023 32.1823 19.3164 31.2074 19.3164C30.7984 19.3164 30.4081 19.3936 30.0962 19.4899L30.1744 20.146C30.4277 19.9916 30.7982 19.9144 31.0708 19.9144C31.5191 19.9144 31.6748 20.0688 31.6748 20.3775V20.5321C30.6226 20.5321 29.9011 20.918 29.9011 21.6315C29.9011 22.114 30.2129 22.4035 30.7781 22.4035C31.2462 22.4035 31.6162 22.172 31.7724 21.8441C31.753 21.9982 31.7332 22.172 31.7332 22.3458L32.4937 22.3456ZM31.675 21.1107C31.675 21.4582 31.4023 21.8243 31.0125 21.8243C30.7982 21.8243 30.6614 21.7089 30.6614 21.516C30.6614 21.2648 30.8369 21.0335 31.675 21.0335V21.1107ZM35.8852 22.3456V20.2617C35.8852 19.7409 35.6709 19.3164 34.9694 19.3164C34.4626 19.3164 34.1115 19.5671 33.9168 19.9144C33.956 19.7409 33.956 19.5094 33.956 19.3742H33.2153V22.3453H33.9948V20.9175C33.9948 20.3965 34.326 19.9528 34.7161 19.9528C35.0082 19.9528 35.1059 20.1457 35.1059 20.4547V22.3453L35.8852 22.3456ZM39.3547 22.3456L38.2047 20.744L39.2767 19.3744H38.3021L37.4054 20.609V17.9852H36.6259V22.3456H37.4054V20.8789L38.3605 22.3456H39.3547ZM14.0745 20.2617C14.0745 18.8533 13.1975 18.2359 12.0473 18.2359C10.839 18.2359 9.86432 19.0655 9.86432 20.3773C9.86432 21.6509 10.5269 22.4225 11.8913 22.4225C13.0999 22.4227 14.0745 21.5932 14.0745 20.2617ZM13.0025 20.3391C13.0025 21.2456 12.4374 21.5735 11.9499 21.5735C11.2482 21.5735 10.9363 21.0915 10.9363 20.3003C10.9363 19.4708 11.4431 19.0849 11.9693 19.0849C12.6321 19.0849 13.0025 19.5094 13.0025 20.3391ZM17.6414 22.249L17.5244 21.4194C17.3099 21.4966 16.9786 21.5544 16.7447 21.5544C15.9456 21.5544 15.5947 21.1107 15.5947 20.3195C15.5947 19.5865 15.9846 19.1235 16.7057 19.1235C16.9786 19.1235 17.2515 19.162 17.5048 19.2392L17.6218 18.3903C17.3491 18.3131 17.0176 18.2939 16.7253 18.2939C15.2635 18.2939 14.4838 19.162 14.4838 20.4741C14.4838 21.4002 14.932 22.4035 16.5498 22.4035C16.9202 22.4035 17.3101 22.3456 17.6414 22.249ZM21.5203 21.0915C21.5203 20.6862 21.2472 20.3003 20.799 20.204V20.1846C21.1888 20.0302 21.4421 19.6829 21.4421 19.3164C21.4421 18.6412 20.8769 18.2939 19.9219 18.2939C19.3761 18.2939 18.7136 18.2939 18.3041 18.3131V22.3456C18.9473 22.3456 19.4347 22.3647 19.7074 22.3647C20.9939 22.3647 21.5203 21.7281 21.5203 21.0915ZM20.3706 19.4516C20.3706 19.7603 20.1168 19.9338 19.6296 19.9338H19.3373V19.0463H19.7466C20.1752 19.0463 20.3706 19.2006 20.3706 19.4516ZM20.4285 21.1107C20.4285 21.4194 20.1752 21.6124 19.727 21.6124C19.571 21.6124 19.4151 21.5932 19.3371 21.5932V20.6282H19.6684C20.1364 20.6282 20.4285 20.7828 20.4285 21.1107ZM25.1067 22.249L24.9898 21.4194C24.775 21.4966 24.4438 21.5544 24.2297 21.5544C23.4304 21.5544 23.0793 21.1107 23.0793 20.3195C23.0793 19.5865 23.4694 19.1235 24.1711 19.1235C24.4438 19.1235 24.7167 19.162 24.97 19.2392L25.0869 18.3903C24.8142 18.3131 24.5024 18.2939 24.1905 18.2939C22.7286 18.2939 21.9491 19.162 21.9491 20.4741C21.9491 21.4002 22.3974 22.4035 24.0149 22.4035C24.4048 22.4035 24.7949 22.3456 25.1067 22.249ZM3.14011 19.0657L1.44435 17.9468C1.71725 17.5801 2.04852 17.2522 2.43837 17.0015L3.90022 18.4871C3.60771 18.6218 3.33482 18.8147 3.14011 19.0657ZM2.69145 20.1268L0.761779 19.3936C0.878735 18.9305 1.05428 18.506 1.30757 18.1204L3.04232 19.1815C2.84761 19.4516 2.73065 19.7795 2.69145 20.1268ZM5.01119 20.9949L2.92558 20.204C2.9859 19.8886 3.11935 19.5914 3.31543 19.3358L5.01119 20.3969V20.9949ZM5.01119 20.3003L3.3934 19.2392C3.58833 19.0077 3.84185 18.8341 4.13413 18.7184L5.01119 19.5865V20.3003ZM0.878956 21.6701C0.722632 21.2435 0.643452 20.7929 0.645043 20.3391C0.645043 20.0688 0.664426 19.8181 0.723014 19.5671L2.69167 20.2617V20.3389C2.69167 20.8018 2.84761 21.2454 3.14011 21.593H3.15949C2.98089 21.2811 2.88688 20.9287 2.88659 20.5702C2.88659 20.4931 2.88659 20.4161 2.90598 20.3389L5.01119 21.0717V21.6699L0.878956 21.6701ZM1.01551 22.0368C0.995912 21.9597 0.956927 21.8823 0.918161 21.8053H2.14609L2.36062 22.0368H4.17333L3.78348 22.4417H1.54171C1.48312 22.2298 1.26881 22.056 1.01551 22.0368ZM5.65434 22.133C5.79184 22.0542 5.92227 21.9639 6.04419 21.8631C6.12216 21.8051 6.20013 21.7281 6.2585 21.6509C6.57039 21.2842 6.76531 20.8406 6.76531 20.3389C6.76534 20.0729 6.71242 19.8094 6.60958 19.5636C6.50674 19.3178 6.35599 19.0945 6.16594 18.9064C5.97588 18.7183 5.75025 18.569 5.50193 18.4672C5.25361 18.3654 4.98746 18.3131 4.71869 18.3131C4.48478 18.3131 4.25086 18.3517 4.05594 18.4289L2.63308 16.8661C3.26658 16.5016 3.98591 16.3086 4.71869 16.3067C5.2542 16.3048 5.78479 16.4078 6.27989 16.6098C6.775 16.8118 7.22483 17.1088 7.60349 17.4836C7.98214 17.8584 8.28213 18.3037 8.48616 18.7938C8.6902 19.2839 8.79425 19.8091 8.79233 20.3391C8.79233 22.5577 6.97962 24.3712 4.71869 24.3712C3.60771 24.3712 2.59409 23.9275 1.85337 23.1943H6.84306L6.88205 23.1559L1.61946 22.9434L1.58047 22.905H7.15517L7.17455 22.8662L1.34678 22.5963L1.32718 22.5766H3.58833C3.58833 22.5769 4.73807 22.6155 5.65434 22.133Z" fill="#C82E37"/>
</svg>
