<svg width="40" height="41" viewBox="0 0 40 41" fill="none" xmlns="http://www.w3.org/2000/svg">
<path fill-rule="evenodd" clip-rule="evenodd" d="M0.685823 22.7128C0.685823 22.1335 0.675622 21.6473 0.64502 21.2138H1.70672L1.7565 21.9586H1.78629C2.02693 21.565 2.46699 21.0996 3.28785 21.0996C3.92857 21.0996 4.42902 21.4727 4.63885 22.0308H4.65946C4.82991 21.7517 5.02944 21.5451 5.25947 21.3998C5.53 21.2036 5.84041 21.0996 6.24079 21.0996C7.05135 21.0996 7.8716 21.6682 7.8716 23.2813V26.2483H6.67066V23.4677C6.67066 22.6304 6.39085 22.1335 5.80063 22.1335C5.37954 22.1335 5.06892 22.4442 4.93968 22.8062C4.90928 22.9299 4.87929 23.0851 4.87929 23.2289V26.2483H3.67793V23.3328C3.67793 22.6304 3.40812 22.1335 2.83749 22.1335C2.37702 22.1335 2.06712 22.5062 1.95675 22.857C1.90635 22.9819 1.88616 23.1262 1.88616 23.2707V26.2483H0.685823V22.7128Z" fill="#003D79"/>
<path fill-rule="evenodd" clip-rule="evenodd" d="M12.5507 25.0388C12.5507 25.4935 12.5706 25.9373 12.6207 26.2483H11.5094L11.4296 25.6902H11.3992C11.0991 26.0834 10.5886 26.3621 9.95811 26.3621C8.97699 26.3621 8.42676 25.6287 8.42676 24.8632C8.42676 23.5911 9.51733 22.9507 11.3191 22.9609V22.8779C11.3191 22.5469 11.1888 21.9993 10.3282 21.9993C9.84753 21.9993 9.34687 22.1545 9.01678 22.3713L8.77624 21.5449C9.13725 21.317 9.76837 21.0996 10.5384 21.0996C12.1005 21.0996 12.5507 22.1238 12.5507 23.2192V25.0388ZM11.3491 23.788C10.4785 23.7672 9.6479 23.9636 9.6479 24.7287C9.6479 25.2245 9.95811 25.4524 10.3486 25.4524C10.8384 25.4524 11.1993 25.1214 11.3091 24.7597C11.3389 24.6667 11.3491 24.5629 11.3491 24.4805V23.788Z" fill="#003D79"/>
<path fill-rule="evenodd" clip-rule="evenodd" d="M13.402 22.7128C13.402 22.1335 13.391 21.6473 13.3618 21.2138H14.4419L14.5023 21.9685H14.5319C14.7423 21.5761 15.2727 21.0996 16.0833 21.0996C16.9344 21.0996 17.8151 21.6682 17.8151 23.2607V26.2483H16.5842V23.4058C16.5842 22.6816 16.3239 22.1335 15.6532 22.1335C15.1628 22.1335 14.8226 22.4954 14.6921 22.8781C14.6527 22.9921 14.6423 23.1475 14.6423 23.2912V26.2483H13.402V22.7128Z" fill="#003D79"/>
<path fill-rule="evenodd" clip-rule="evenodd" d="M23.1526 19.1909V24.8317C23.1526 25.3485 23.1723 25.9078 23.1924 26.2486H22.0913L22.042 25.4526H22.0216C21.7312 26.0112 21.1398 26.3624 20.4299 26.3624C19.2694 26.3624 18.3482 25.339 18.3482 23.7883C18.338 22.1029 19.3589 21.0998 20.5299 21.0998C21.2003 21.0998 21.6811 21.3897 21.901 21.7622H21.9213V19.1909H23.1526ZM21.9213 23.3119C21.9213 23.2096 21.911 23.0849 21.8917 22.9819C21.7814 22.4856 21.3908 22.0822 20.8303 22.0822C20.0396 22.0822 19.5991 22.8062 19.5991 23.7471C19.5991 24.6669 20.0396 25.339 20.8203 25.339C21.3205 25.339 21.7612 24.9876 21.8812 24.4398C21.911 24.3256 21.9213 24.2017 21.9213 24.0668V23.3119Z" fill="#003D79"/>
<path fill-rule="evenodd" clip-rule="evenodd" d="M24.0225 26.2481H25.2648V21.2139H24.0225V26.2481Z" fill="#003D79"/>
<path fill-rule="evenodd" clip-rule="evenodd" d="M26.135 22.8366C26.135 22.1545 26.1246 21.668 26.0947 21.2135H27.1659L27.2051 22.1747H27.2466C27.4864 21.4613 28.0571 21.2135 28.5773 21.2135C28.6972 21.2135 28.7671 21.1923 28.8675 21.2135V22.3304C28.7671 22.3097 28.6573 22.2891 28.5071 22.2891C27.9167 22.2891 27.516 22.6816 27.406 23.2498C27.3866 23.3636 27.3664 23.4986 27.3664 23.644V26.2483H26.135V22.8366Z" fill="#003D79"/>
<path fill-rule="evenodd" clip-rule="evenodd" d="M29.4375 26.2481H30.678V21.2139H29.4375V26.2481Z" fill="#003D79"/>
<path fill-rule="evenodd" clip-rule="evenodd" d="M29.1444 15.127C28.3993 15.5727 26.6417 16.614 25.9856 17.0017C25.5857 17.2121 24.6595 17.304 24.1357 16.5745C24.1263 16.5613 23.439 15.6742 23.411 15.6408C23.3913 15.6172 22.9469 14.9364 21.9568 14.9152C21.8106 14.9116 21.0832 14.9076 20.3736 15.3242C19.4303 15.8808 17.2365 17.1763 17.2365 17.1763C17.2365 17.1763 17.2359 17.1775 17.2348 17.1775C16.333 17.7104 15.6304 18.1254 15.6304 18.1254L16.4605 19.1785C16.8489 19.6766 17.7246 20.0619 18.4841 19.6115C18.4841 19.6115 21.2902 17.9331 21.3005 17.9282C22.5141 17.2407 23.4505 17.2407 24.0721 17.4965C24.63 17.74 25.1153 18.3467 25.1153 18.3467C25.1153 18.3467 25.7496 19.1587 25.8615 19.3007C26.2224 19.7596 26.8198 19.5793 26.8198 19.5793C26.8198 19.5793 27.0411 19.5534 27.3748 19.3488C27.3748 19.3488 30.0929 17.7208 30.0947 17.7203C30.9577 17.1973 31.7493 17.0996 32.1539 17.1381C33.421 17.257 33.8147 18.1714 34.3641 18.8093C34.6877 19.1845 34.9796 19.3975 35.4261 19.3868C35.7195 19.3804 36.0509 19.1966 36.0998 19.1634L39.3547 17.2232C39.3547 17.2232 39.0207 16.7036 38.3367 15.8953C37.7246 15.174 37.0744 15.5004 36.556 15.7656C36.3382 15.8768 35.549 16.419 34.7673 16.7973C34.2102 17.0667 33.41 16.9857 32.9715 16.426C32.9453 16.392 32.2358 15.5048 32.1612 15.3956C31.8749 15.0252 31.3162 14.6934 30.6002 14.6934C30.1648 14.6934 29.6708 14.816 29.1444 15.127Z" fill="url(#paint0_linear_1390_47873)"/>
<defs>
<linearGradient id="paint0_linear_1390_47873" x1="15.6304" y1="270.574" x2="2388.06" y2="270.574" gradientUnits="userSpaceOnUse">
<stop stop-color="#FFCA06"/>
<stop offset="0.330844" stop-color="#FBAA18"/>
<stop offset="0.694742" stop-color="#FFC907"/>
<stop offset="1" stop-color="#FAA619"/>
</linearGradient>
</defs>
</svg>
