<svg width="40" height="41" viewBox="0 0 40 41" fill="none" xmlns="http://www.w3.org/2000/svg">
<path fill-rule="evenodd" clip-rule="evenodd" d="M5.73917 15.0366C3.87635 15.2127 2.36672 16.199 1.44987 17.7215C0.854068 18.7108 0.574005 19.8827 0.660371 21.0855C0.871696 24.028 3.4004 26.5192 6.63704 26.2628C9.54104 26.0326 11.9371 23.4202 11.6916 20.2071C11.6017 19.0308 11.1928 18.0612 10.5375 17.1858C10.2407 16.7894 10.1822 16.783 9.87232 16.4585C9.48805 16.0559 8.6754 15.5939 8.15679 15.3894C7.46137 15.1152 6.57591 14.9574 5.73917 15.0366Z" fill="#108DE8"/>
<path fill-rule="evenodd" clip-rule="evenodd" d="M2.97313 19.007C2.90251 19.2109 2.94455 21.4782 2.94455 21.8988C2.94455 22.3538 2.85474 22.4959 3.56653 22.7393C5.45114 23.3838 7.31729 21.1985 9.19126 22.2797C9.27815 22.3298 9.38392 22.4325 9.40874 22.2666L9.40947 19.3499C9.40958 19.0361 9.43763 18.9378 9.22954 18.793C7.5526 17.6247 5.73694 19.6229 4.03538 19.3988C3.40569 19.3159 3.14492 18.9946 2.97313 19.007Z" fill="white"/>
<path fill-rule="evenodd" clip-rule="evenodd" d="M35.7424 23.3979L34.5372 23.3984C34.5318 22.9536 34.5334 22.507 34.5349 22.0608V22.0599C34.5356 21.8497 34.5363 21.6397 34.5363 21.43C34.5363 21.3186 34.5343 21.2006 34.5322 21.0791V21.0787C34.5235 20.5732 34.5138 20.0052 34.6438 19.5843C34.9165 18.7019 35.7705 17.9101 36.9471 17.9146C38.1112 17.919 38.9957 18.7131 39.2485 19.6084C39.3685 20.0329 39.3594 20.5869 39.3511 21.0905C39.3491 21.2145 39.3471 21.3355 39.3471 21.4507C39.3471 21.5196 39.3471 21.5885 39.3471 21.6575C39.3471 21.7683 39.3471 21.8791 39.3472 21.9899C39.3473 22.4579 39.3474 22.9267 39.3468 23.3982L38.1421 23.398L38.1351 22.2237L35.7436 22.2233L35.7424 23.3979ZM38.1411 21.0426L35.7435 21.0416C35.7425 20.9743 35.7406 20.9065 35.7387 20.8386L35.7387 20.8384C35.7269 20.4105 35.715 19.9814 35.9199 19.6575C36.1011 19.3715 36.4398 19.0941 36.9478 19.0961C37.4457 19.0981 37.8001 19.3871 37.9682 19.6632C38.1679 19.9915 38.1572 20.3947 38.1459 20.8178L38.1459 20.8181C38.1439 20.8924 38.1419 20.9674 38.1411 21.0426Z" fill="#108DE8"/>
<path fill-rule="evenodd" clip-rule="evenodd" d="M17.8721 22.5757C17.5704 22.89 16.714 23.4388 15.9788 23.3883L13.8716 23.3814L13.8721 17.9319L15.991 17.9303C16.5777 17.8644 17.4975 18.335 17.8904 18.7607C18.9455 19.904 18.9202 21.4838 17.8721 22.5757ZM16.035 22.2083C15.8589 22.2238 15.2179 22.2336 15.0619 22.2075L15.0611 19.1048C15.204 19.08 15.8938 19.0908 16.0553 19.1081C16.3501 19.1397 16.5749 19.2453 16.7769 19.3778C17.9937 20.1758 17.4825 22.0809 16.035 22.2083Z" fill="#108DE8"/>
<path fill-rule="evenodd" clip-rule="evenodd" d="M20.7517 23.3971L21.9528 23.3981C21.953 23.3341 21.9509 23.2354 21.9485 23.1215V23.1214C21.9416 22.7993 21.9321 22.3549 21.9645 22.2233L24.3468 22.2236L24.3553 23.3973L25.558 23.3984C25.5538 22.9581 25.555 22.5183 25.5563 22.0795V22.0789C25.5569 21.8693 25.5575 21.6598 25.5575 21.4507C25.5575 21.3407 25.5596 21.2213 25.5618 21.0966C25.5706 20.5922 25.581 20.0024 25.4598 19.6077C24.7715 17.366 21.5672 17.3501 20.856 19.5853C20.7264 19.9927 20.7367 20.5739 20.7457 21.0792V21.0793C20.7478 21.2018 20.7499 21.3199 20.7499 21.43C20.7499 21.6382 20.7484 21.8482 20.7468 22.0588V22.0591C20.7434 22.5064 20.74 22.9563 20.7517 23.3971ZM21.9536 21.0415L24.3542 21.0427C24.3549 20.968 24.3568 20.8932 24.3587 20.8187L24.3587 20.8184C24.3695 20.3984 24.38 19.9893 24.18 19.6622C23.7492 18.9571 22.6534 18.8556 22.1321 19.6588C21.9248 19.9781 21.9371 20.4222 21.949 20.8506L21.949 20.8508C21.9508 20.9149 21.9526 20.9786 21.9536 21.0415Z" fill="#108DE8"/>
<path d="M27.6558 20.8729L27.6721 20.0589C27.6473 19.7938 27.8158 19.3823 27.921 19.1829C28.8187 17.4819 31.3241 17.5045 32.1969 19.2123C32.3009 19.4157 32.463 19.8163 32.4335 20.0754L32.4429 23.383L31.2638 23.3822C31.2575 23.2634 31.2593 22.7985 31.2615 22.2563C31.2652 21.3221 31.2698 20.1585 31.2349 20.1396C31.2393 19.8361 31.0098 19.5365 30.8597 19.4049C30.6674 19.2365 30.4033 19.0947 30.0411 19.096C29.4514 19.0981 28.8685 19.5986 28.8682 20.1368C28.8225 20.1908 28.8309 21.2471 28.8381 22.1486C28.8427 22.7217 28.8467 23.2322 28.8361 23.383L27.6583 23.3824C27.6319 22.9968 27.6411 22.262 27.649 21.6209C27.6525 21.3416 27.6558 21.0801 27.6558 20.8729Z" fill="#108DE8"/>
</svg>
