<svg width="40" height="41" viewBox="0 0 40 41" fill="none" xmlns="http://www.w3.org/2000/svg">
<path fill-rule="evenodd" clip-rule="evenodd" d="M4.27967 23.9483L5.89298 25.9778H1.89872L4.27967 23.9483ZM3.77235 23.3214L0.647838 25.984L0.646557 19.4357L3.77235 23.3214ZM11.2902 16.7276C11.2902 16.7276 10.6043 16.3978 9.80742 16.446C8.89642 16.5005 8.13428 16.8554 7.69614 17.3237C7.42045 17.6179 7.11567 17.9768 6.96258 18.3666C6.74056 18.9304 6.69316 19.6755 6.69316 19.6755C6.69316 19.6755 6.37455 19.4008 5.97535 18.6003C5.5112 17.6693 5.38424 17.1053 5.32134 16.4618C5.26536 15.8972 5.35324 15.3389 5.35324 15.3389H11.2902V16.7276ZM11.2902 18.5841V22.713C11.2902 22.713 10.9211 22.857 10.62 22.857C10.319 22.857 9.80627 22.8117 9.2108 22.4791C8.6197 22.1493 8.2925 21.7502 8.03884 21.3886C7.78159 21.0207 7.56918 20.5109 7.50603 20.1434C7.45529 19.8495 7.40059 19.1163 7.69614 18.5204C7.85654 18.197 8.28699 17.6427 9.11575 17.6112C9.79128 17.5848 10.1659 17.7652 10.5092 17.9566C11.1626 18.3216 11.2902 18.5841 11.2902 18.5841ZM4.82555 22.4231L5.89643 21.5163C5.55515 21.0734 5.46495 20.9066 5.08344 20.3348C4.69283 19.7496 4.36563 19.1058 4.08584 18.3504C3.78298 17.5321 3.70983 17.0727 3.74327 16.4618C3.78516 15.6846 3.95913 15.3389 3.95913 15.3389H0.64502L0.646557 17.1533C0.646557 17.1533 3.18342 20.3829 4.82555 22.4231ZM7.88536 25.9749H11.2902V23.4529C11.2902 23.4529 10.4457 23.8464 9.89671 23.8782C9.5699 23.8976 9.2527 23.9104 8.74089 23.7721C8.17195 23.6185 7.84872 23.4688 7.32142 23.027C6.89788 22.6726 6.41362 22.1493 6.41362 22.1493L5.33646 23.0616C5.83622 23.6826 6.20531 24.1346 6.31831 24.2562C6.8041 24.7778 7.00998 24.9694 7.33718 25.1553C7.66424 25.3415 8.75703 25.3314 8.75703 25.3314L7.88536 25.9749Z" fill="#E94E0F"/>
<path fill-rule="evenodd" clip-rule="evenodd" d="M37.012 23.5725C37.012 24.2881 37.1086 25.4641 36.3058 25.7504V25.7981H39.3548V25.7504C38.5526 25.4485 38.6488 24.2881 38.6488 23.5725V17.58C38.6488 16.8649 38.5526 15.6885 39.3548 15.3865V15.3389H36.3058V15.3865C37.1243 15.6885 37.012 16.8489 37.012 17.58V23.5725ZM25.8319 17.58L31.3363 24.4947C32.0422 25.4005 32.54 25.9253 33.6793 26.3066V17.3893C33.6793 16.4993 33.6793 15.8633 34.514 15.3865V15.3389H31.6893V15.3865C32.54 15.8633 32.5237 16.4993 32.5237 17.3893V23.4137L26.6505 16.0699L26.4256 15.752C26.3135 15.6249 26.2494 15.5455 26.1852 15.3548V15.3389H23.8418V15.3865C24.6764 15.8633 24.6764 16.4993 24.6764 17.3893V23.7319C24.6764 24.6218 24.6764 25.2575 23.8261 25.7504V25.7981H26.6666V25.7504C25.8159 25.2575 25.8319 24.6218 25.8319 23.7319V17.58ZM16.8595 19.5512V16.4358L17.9344 16.3242C18.8974 16.2289 19.9243 16.8012 19.9243 17.8982C19.9243 19.2016 18.4318 19.5512 17.389 19.5512H16.8595ZM16.8595 24.5264V20.6001L17.9826 20.5366C19.3948 20.4571 20.9033 21.1249 20.9033 22.6667C20.9033 24.1768 19.5717 24.7807 18.2554 24.6537L16.8595 24.5264ZM15.2224 23.5567C15.2224 24.2881 15.3188 25.4485 14.5161 25.7504V25.7981H17.1641C18.3676 25.7981 19.6358 25.8459 20.7589 25.3054C21.8341 24.7967 22.6847 23.7474 22.6847 22.5234C22.6847 20.966 21.513 20.0121 20.0687 19.7098C20.9836 19.3126 21.6733 18.7086 21.6733 17.6436C21.6733 16.2289 20.438 15.3389 18.3199 15.3389H14.5161V15.3865C15.335 15.6885 15.2224 16.8489 15.2224 17.5641V23.5567Z" fill="#005B6A"/>
</svg>
