<svg width="40" height="41" viewBox="0 0 40 41" fill="none" xmlns="http://www.w3.org/2000/svg">
<path fill-rule="evenodd" clip-rule="evenodd" d="M11.1191 18.2915H13.2052C14.0499 18.2915 14.6797 18.6653 14.6797 19.4521C14.6797 20.029 14.3877 20.3503 13.8806 20.5205V20.5334C14.485 20.6584 14.797 20.9862 14.797 21.5432C14.797 22.6383 13.8415 22.8676 13.0293 22.8676H11.1191V18.2915ZM12.3274 20.101H12.6656C13.062 20.101 13.4716 20.0026 13.4716 19.6155C13.4716 19.1965 13.0816 19.1568 12.6783 19.1568H12.3274V20.101ZM12.3274 22.0023H12.6854C13.1269 22.0023 13.5881 21.9367 13.5881 21.4711C13.5881 20.9733 13.114 20.927 12.6981 20.927H12.3274V22.0023Z" fill="#00529C"/>
<path fill-rule="evenodd" clip-rule="evenodd" d="M16.383 18.2915H17.8647L19.6127 22.8676H18.2869L17.9493 21.891H16.2468L15.8892 22.8676H14.6611L16.383 18.2915ZM17.1241 19.2358H17.1105L16.526 21.0257H17.6631L17.1241 19.2358Z" fill="#00529C"/>
<path fill-rule="evenodd" clip-rule="evenodd" d="M19.7808 18.2915H21.3207L22.8543 21.3993H22.867L22.8478 18.2915H23.9528V22.8676H22.4516L20.8656 19.7404H20.8532L20.8919 22.8676H19.7808V18.2915Z" fill="#00529C"/>
<path fill-rule="evenodd" clip-rule="evenodd" d="M24.3628 18.2915H25.5713V20.1605H25.5843L26.9484 18.2915H28.4045L26.7277 20.4221L28.5345 22.8676H26.9939L25.5843 20.7895H25.5713V22.8676H24.3628V18.2915Z" fill="#00529C"/>
<path fill-rule="evenodd" clip-rule="evenodd" d="M30.0332 18.2915H32.1192C32.9638 18.2915 33.5943 18.6653 33.5943 19.4521C33.5943 20.029 33.3024 20.3503 32.7953 20.5205V20.5334C33.3995 20.6584 33.7114 20.9862 33.7114 21.5432C33.7114 22.6383 32.7561 22.8676 31.9442 22.8676H30.0332V18.2915ZM31.2421 20.101H31.5797C31.9762 20.101 32.3853 20.0026 32.3853 19.6155C32.3853 19.1965 31.9958 19.1568 31.5931 19.1568H31.2421V20.101ZM31.2421 22.0023H31.5997C32.0411 22.0023 32.5027 21.9367 32.5027 21.4711C32.5027 20.9733 32.0285 20.927 31.6125 20.927H31.2421V22.0023Z" fill="#00529C"/>
<path fill-rule="evenodd" clip-rule="evenodd" d="M33.979 18.2915H36.1364C36.942 18.2915 37.5987 18.6585 37.5987 19.4457C37.5987 20.0553 37.3127 20.4618 36.728 20.5993V20.6123C37.1171 20.7174 37.1436 21.0646 37.371 21.622L37.8131 22.8676H36.5526L36.2925 22.042C36.0455 21.2552 35.8894 21.0581 35.441 21.0581H35.1875V22.8676H33.979V18.2915ZM35.1875 20.1928H35.5061C35.8959 20.1928 36.39 20.1794 36.39 19.6616C36.39 19.2358 35.9671 19.1568 35.5061 19.1568H35.1875V20.1928Z" fill="#00529C"/>
<mask id="mask0_1390_47868" style="mask-type:luminance" maskUnits="userSpaceOnUse" x="0" y="15" width="40" height="11">
<path d="M0.64502 25.1787H39.3547V15.9839H0.64502V25.1787Z" fill="#00529C"/>
</mask>
<g mask="url(#mask0_1390_47868)">
<path fill-rule="evenodd" clip-rule="evenodd" d="M38.146 22.8676H39.3545V18.2915H38.146V22.8676Z" fill="#00529C"/>
</g>
<mask id="mask1_1390_47868" style="mask-type:luminance" maskUnits="userSpaceOnUse" x="0" y="15" width="40" height="11">
<path d="M0.64502 25.1787H39.3547V15.9839H0.64502V25.1787Z" fill="#00529C"/>
</mask>
<g mask="url(#mask1_1390_47868)">
<path fill-rule="evenodd" clip-rule="evenodd" d="M8.36081 15.9839H2.03525C1.26745 15.9839 0.64502 16.6274 0.64502 17.4214V17.4366V23.7416C0.64502 24.5278 1.25598 25.167 2.01389 25.1787H8.35745C9.12544 25.1787 9.74807 24.5352 9.74807 23.7416L9.75104 17.4214C9.75104 16.6274 9.12881 15.9839 8.36081 15.9839ZM2.78723 24.442L2.44209 24.4458C2.02437 24.4458 1.68576 24.0996 1.68576 23.6723L1.68379 23.6115V17.7746L1.68596 17.4604C1.70159 17.0469 2.0129 16.714 2.42073 16.714H3.12228C3.75796 16.714 4.27358 17.2718 4.27358 17.9299C4.27358 18.2552 4.1472 18.5505 3.94249 18.7652L2.15254 20.5977L3.83015 22.3212C4.04653 22.5461 4.17726 22.8418 4.17726 23.1657C4.17726 23.8707 3.55483 24.442 2.78723 24.442ZM7.94467 24.4362L4.8169 24.4348C4.8169 24.4348 5.17865 23.6462 5.17865 23.1581C5.17865 22.563 4.98126 22.0312 4.67251 21.6794L3.6027 20.5791L4.69467 19.4409C5.01963 19.1326 5.23561 18.5854 5.23561 17.9622C5.23561 17.4687 5.10032 17.0315 4.88256 16.714H5.64047C6.27635 16.714 6.79198 17.2718 6.79198 17.9299C6.79198 18.2552 6.66579 18.5505 6.46108 18.7652L4.70535 20.5785L8.35191 24.3303C8.2364 24.4037 8.09063 24.4362 7.94467 24.4362ZM8.70851 23.2649L6.09518 20.5777L7.33984 19.3014C7.5934 18.9819 7.754 18.5004 7.754 17.9622C7.754 17.4655 7.61674 17.0178 7.397 16.7001L7.95416 16.7168C8.37188 16.7168 8.71049 17.0636 8.71049 17.4907L8.70851 23.2649Z" fill="#00529C"/>
</g>
</svg>
