<svg width="40" height="41" viewBox="0 0 40 41" fill="none" xmlns="http://www.w3.org/2000/svg">
<path fill-rule="evenodd" clip-rule="evenodd" d="M6.32844 23.4014L6.15889 23.4021C6.14902 22.7196 5.77734 22.1324 5.32206 21.8251C4.95048 21.574 4.43695 21.3961 3.55778 21.1822C2.73549 20.9831 2.51427 20.1344 2.7617 19.4963C3.02844 18.8117 3.52553 18.5737 4.11854 18.523C4.97553 18.422 6.33205 19.7174 6.32197 21.5537C6.33353 21.7057 6.32844 22.9397 6.32844 23.4014ZM5.96096 23.4021L5.78366 23.4014C5.6869 22.9397 5.07904 22.7029 4.69484 22.7845C4.47213 22.8311 4.00772 22.9234 3.6404 22.9089C3.0389 22.8872 2.63943 22.3327 2.5938 21.9963C2.55454 21.7055 2.59507 21.208 2.81821 20.9867C2.90256 21.1724 3.17503 21.318 3.43551 21.3836C4.27818 21.594 4.80052 21.7573 5.1896 22.0058C5.62822 22.287 5.96383 22.8103 5.96096 23.4021ZM6.63913 15.6611H6.58873C7.60763 15.6611 8.48817 16.3231 8.48425 17.4686C8.48255 18.4318 7.69623 18.9475 7.41283 19.3158C6.9882 19.8709 6.75022 20.5028 6.73494 21.5083C6.72337 22.2715 6.73356 23.1101 6.73738 23.4031H6.51233C6.5082 23.1231 6.50915 22.3331 6.49048 21.5331C6.46671 20.5278 6.237 19.8709 5.81259 19.3158C5.53163 18.9475 4.74456 18.4318 4.74138 17.4686C4.7383 16.3231 5.61916 15.6611 6.63913 15.6611ZM6.89795 23.4014C6.89795 22.9397 6.89265 21.7057 6.904 21.5537C6.89403 19.7174 8.2497 18.422 9.10743 18.523C9.70044 18.5737 10.1969 18.8117 10.4645 19.4963C10.7116 20.1344 10.4892 20.9831 9.66797 21.1822C8.78817 21.3961 8.27537 21.574 7.90285 21.8251C7.44809 22.1324 7.10241 22.7196 7.0918 23.4021L6.89795 23.4014ZM7.26517 23.4021C7.26199 22.8103 7.59749 22.287 8.03484 22.0058C8.42562 21.7573 8.94849 21.594 9.79041 21.3836C10.0514 21.318 10.3236 21.1724 10.4064 20.9867C10.6306 21.208 10.6712 21.7055 10.6318 21.9963C10.5853 22.3327 10.1868 22.8872 9.58638 22.9089C9.21926 22.9234 8.75231 22.8311 8.53055 22.7845C8.14784 22.7029 7.53828 22.9397 7.44109 23.4014L7.26517 23.4021Z" fill="#0060AF"/>
<path fill-rule="evenodd" clip-rule="evenodd" d="M6.71065 26.1294C5.11244 26.1294 3.47014 25.7584 1.82993 25.0245L1.78968 25.0059L1.77043 24.9672C1.03437 23.5026 0.64502 21.9007 0.64502 20.3334C0.64502 18.7684 1.01841 17.235 1.7549 15.7723L1.77524 15.7334L1.81626 15.714C3.33354 15.0365 4.96566 14.6934 6.66909 14.6934C8.25571 14.6934 9.95039 15.0753 11.5688 15.8001L11.6103 15.8176L11.6295 15.8571C12.3796 17.3488 12.7752 18.9503 12.7752 20.4918C12.7752 22.027 12.3954 23.5619 11.6443 25.0526L11.6246 25.0916L11.5828 25.1098C10.0886 25.7765 8.4038 26.1294 6.71065 26.1294ZM1.98173 24.8237C3.57503 25.5303 5.16428 25.8871 6.71065 25.8871C8.35032 25.8871 9.98091 25.5492 11.4326 24.9087C12.1536 23.4642 12.5192 21.9775 12.5192 20.4918C12.5192 18.9998 12.1377 17.4481 11.4161 16.0002C9.8454 15.3042 8.20508 14.9351 6.66909 14.9351C5.02002 14.9351 3.4393 15.2648 1.96795 15.9154C1.26164 17.333 0.902147 18.8186 0.902147 20.3334C0.902147 21.8509 1.27564 23.4034 1.98173 24.8237Z" fill="#0060AF"/>
<path fill-rule="evenodd" clip-rule="evenodd" d="M7.54517 25.3388L7.41943 24.4203L7.72319 24.3743C7.79705 24.3643 7.88708 24.3771 7.9231 24.4234C7.96289 24.4718 7.97507 24.5118 7.98274 24.5753C7.9943 24.6539 7.97159 24.7445 7.8832 24.7898V24.7925C7.98182 24.7925 8.04147 24.8635 8.05886 24.9832C8.06131 25.0086 8.06889 25.0696 8.06131 25.1205C8.04126 25.2418 7.96903 25.2809 7.84688 25.298L7.54517 25.3388ZM7.74068 25.1745C7.77669 25.1693 7.81322 25.1673 7.84176 25.1491C7.88555 25.1205 7.88156 25.0596 7.87542 25.0141C7.86028 24.9145 7.83429 24.8766 7.72861 24.8922L7.66211 24.9025L7.70426 25.1795L7.74068 25.1745ZM7.67715 24.75C7.71735 24.7435 7.77178 24.7386 7.7945 24.7004C7.80647 24.675 7.82161 24.6547 7.81158 24.598C7.7992 24.5309 7.777 24.4891 7.69157 24.5053L7.61208 24.5181L7.64349 24.7535L7.67715 24.75Z" fill="#0060AF"/>
<path fill-rule="evenodd" clip-rule="evenodd" d="M9.01859 24.6097C9.021 24.6267 9.02383 24.6457 9.02488 24.6628C9.05003 24.8298 9.01859 24.9683 8.82576 25.0063C8.5406 25.0597 8.486 24.8873 8.4359 24.6457L8.40918 24.5149C8.36988 24.2839 8.35301 24.1089 8.63094 24.0549C8.78761 24.0271 8.89115 24.0878 8.93423 24.2398C8.94093 24.2624 8.94932 24.2848 8.95246 24.3077L8.78195 24.342C8.76225 24.2848 8.73616 24.1828 8.65944 24.1914C8.52174 24.2076 8.56722 24.3744 8.58137 24.4443L8.63261 24.6951C8.64802 24.771 8.67862 24.8922 8.79778 24.8688C8.89451 24.8499 8.85227 24.7031 8.84368 24.6429" fill="#0060AF"/>
<path fill-rule="evenodd" clip-rule="evenodd" d="M9.40855 25.0161L9.35498 24.1132L9.56327 24.0483L10.0001 24.8336L9.83609 24.8837L9.73256 24.6841L9.5504 24.7399L9.57394 24.9668L9.40855 25.0161ZM9.53515 24.5941L9.66679 24.5552L9.49196 24.1899L9.53515 24.5941Z" fill="#0060AF"/>
<path fill-rule="evenodd" clip-rule="evenodd" d="M3.33327 24.3678C3.42923 24.1532 3.51509 23.995 3.8814 24.0652C4.07739 24.1036 4.19888 24.1639 4.19313 24.323C4.19215 24.3584 4.17546 24.3946 4.16451 24.4295L3.93653 24.3856C3.96642 24.2976 3.98536 24.2279 3.83047 24.1946C3.65146 24.1602 3.60783 24.312 3.58313 24.3775L3.4904 24.6162C3.46094 24.6871 3.42558 24.8043 3.58313 24.8346C3.71333 24.859 3.79217 24.7698 3.83931 24.6393L3.67994 24.6097L3.73507 24.4717L4.11008 24.5559L3.93205 25.0161L3.75948 24.9833L3.79835 24.8861H3.79343C3.71389 24.9657 3.61709 24.974 3.53221 24.9625C3.1572 24.8917 3.19634 24.7204 3.28585 24.4916" fill="#0060AF"/>
<path fill-rule="evenodd" clip-rule="evenodd" d="M4.54621 24.5662L4.43767 24.9265L4.19336 24.8896L4.45371 24.0483L4.8702 24.1141C5.11397 24.151 5.18759 24.2269 5.15307 24.3833C5.13339 24.4731 5.07015 24.5697 4.91577 24.5619L4.91416 24.5605C5.04467 24.5924 5.05573 24.6385 5.03294 24.7181C5.0231 24.752 4.95528 24.9576 5.00207 24.9908L5.00368 25.0161L4.75088 24.9698C4.74036 24.9129 4.77623 24.8105 4.79038 24.7536C4.80454 24.7034 4.82733 24.6327 4.75452 24.6061C4.69762 24.5848 4.67632 24.5859 4.61187 24.5756L4.54621 24.5662ZM4.58787 24.4359L4.75236 24.467C4.85227 24.4771 4.90782 24.4409 4.9275 24.3564C4.9453 24.2789 4.92225 24.2487 4.83259 24.2337L4.65623 24.2086L4.58787 24.4359Z" fill="#0060AF"/>
<path fill-rule="evenodd" clip-rule="evenodd" d="M5.87151 24.4214L6.12887 24.4423L6.018 25.0737C5.96415 25.2738 5.85385 25.3613 5.5399 25.334C5.2205 25.3056 5.14467 25.2036 5.16392 25.0019L5.27565 24.3711L5.53502 24.3918L5.42372 25.0085C5.4118 25.0755 5.38982 25.1747 5.55958 25.1868C5.71023 25.1949 5.74441 25.1247 5.7615 25.0377" fill="#0060AF"/>
<path fill-rule="evenodd" clip-rule="evenodd" d="M6.12891 25.3265L6.18708 24.3711L6.55788 24.387C6.73326 24.3956 6.77904 24.5372 6.77365 24.6724C6.76848 24.7545 6.74263 24.8463 6.67024 24.8961C6.61088 24.9384 6.5345 24.9485 6.46383 24.945L6.34296 24.9384L6.31883 25.3388L6.12891 25.3265ZM6.34835 24.7927L6.44659 24.7981C6.52642 24.801 6.57931 24.7698 6.58621 24.6538C6.59019 24.5425 6.54753 24.5235 6.44412 24.5191L6.36634 24.5164L6.34835 24.7927Z" fill="#0060AF"/>
<path fill-rule="evenodd" clip-rule="evenodd" d="M32.903 16.6863L31.4013 19.2439C30.8344 18.812 30.1424 18.4942 29.2593 18.4942C27.1694 18.4942 26.3205 19.9558 26.3205 20.9854C26.3205 21.7497 26.8538 22.8773 28.7133 22.8773C29.4939 22.8773 30.6034 22.3679 30.9228 22.136L29.4376 25.1032C28.7297 25.2357 28.497 25.3179 27.8978 25.3353C24.5695 25.4285 23.2247 23.51 23.2256 21.5499C23.2279 18.9584 25.6833 15.8068 29.754 15.8068C30.0034 15.8068 30.3084 15.8879 30.5693 15.9776L30.833 15.6611" fill="#0060AF"/>
<path fill-rule="evenodd" clip-rule="evenodd" d="M38.9346 15.6611L39.3548 25.016H36.2276L36.2259 23.4117H34.0934L33.3916 25.016H30L33.5458 18.3358L32.7463 18.3309L34.2653 15.6611H38.9346ZM36.2055 18.523L34.9999 21.244H36.2419L36.2055 18.523Z" fill="#0060AF"/>
<path fill-rule="evenodd" clip-rule="evenodd" d="M21.1405 15.6648C22.679 15.6731 23.5484 16.4761 23.5484 17.636C23.5484 18.7055 22.6315 19.652 21.625 20.1414C22.6612 20.5078 22.7509 21.407 22.7509 22.043C22.7509 23.58 21.1472 25.016 19.0626 25.016H14.5161L16.2895 18.4315L15.5611 18.4275L17.0502 15.6648C17.0502 15.6648 19.8895 15.6565 21.1405 15.6648ZM19.6312 19.4562C19.9494 19.4562 20.5113 19.3787 20.6518 18.7865C20.8057 18.1435 20.2784 18.1262 20.0254 18.1262L19.1216 18.1225L18.8064 19.4562H19.6312ZM18.3533 21.1087L17.9371 22.6455H19.0015C19.4201 22.6455 19.9908 22.4456 20.1306 21.9455C20.2687 21.444 19.8698 21.1087 19.4527 21.1087H18.3533Z" fill="#0060AF"/>
</svg>
