<svg width="80" height="56" viewBox="0 0 80 56" fill="none" xmlns="http://www.w3.org/2000/svg">
<rect width="80" height="56" rx="8" fill="#0060AF"/>
<path fill-rule="evenodd" clip-rule="evenodd" d="M23.5941 31.4817L23.3907 31.4826C23.3788 30.6635 22.9328 29.9589 22.3865 29.5901C21.9406 29.2888 21.3243 29.0753 20.2693 28.8186C19.2826 28.5797 19.0171 27.5612 19.314 26.7956C19.6341 25.974 20.2306 25.6884 20.9422 25.6276C21.9706 25.5065 23.5985 27.0609 23.5864 29.2644C23.6002 29.4468 23.5941 30.9277 23.5941 31.4817ZM23.1532 31.4826L22.9404 31.4817C22.8243 30.9277 22.0948 30.6434 21.6338 30.7414C21.3666 30.7973 20.8093 30.9081 20.3685 30.8907C19.6467 30.8646 19.1673 30.1992 19.1126 29.7956C19.0655 29.4466 19.1141 28.8496 19.3818 28.584C19.4831 28.8068 19.81 28.9817 20.1226 29.0603C21.1338 29.3129 21.7606 29.5087 22.2275 29.807C22.7539 30.1444 23.1566 30.7724 23.1532 31.4826ZM23.967 22.1934H23.9065C25.1292 22.1934 26.1858 22.9877 26.1811 24.3623C26.1791 25.5182 25.2355 26.137 24.8954 26.579C24.3858 27.245 24.1003 28.0033 24.0819 29.21C24.068 30.1258 24.0803 31.1322 24.0849 31.4837H23.8148C23.8098 31.1477 23.811 30.1997 23.7886 29.2397C23.7601 28.0334 23.4844 27.245 22.9751 26.579C22.638 26.137 21.6935 25.5182 21.6897 24.3623C21.686 22.9877 22.743 22.1934 23.967 22.1934ZM24.2775 31.4817C24.2775 30.9277 24.2712 29.4468 24.2848 29.2644C24.2728 27.0609 25.8996 25.5065 26.9289 25.6276C27.6405 25.6884 28.2363 25.974 28.5574 26.7956C28.8539 27.5612 28.587 28.5797 27.6016 28.8186C26.5458 29.0753 25.9304 29.2888 25.4834 29.5901C24.9377 29.9589 24.5229 30.6635 24.5102 31.4826L24.2775 31.4817ZM24.7182 31.4826C24.7144 30.7724 25.117 30.1444 25.6418 29.807C26.1107 29.5087 26.7382 29.3129 27.7485 29.0603C28.0617 28.9817 28.3883 28.8068 28.4877 28.584C28.7568 28.8496 28.8054 29.4466 28.7582 29.7956C28.7024 30.1992 28.2242 30.8646 27.5037 30.8907C27.0631 30.9081 26.5028 30.7973 26.2367 30.7414C25.7774 30.6434 25.0459 30.9277 24.9293 31.4817L24.7182 31.4826Z" fill="white"/>
<path fill-rule="evenodd" clip-rule="evenodd" d="M24.0532 34.7555C22.1353 34.7555 20.1646 34.3103 18.1963 33.4296L18.148 33.4072L18.1249 33.3608C17.2416 31.6033 16.7744 29.6811 16.7744 27.8003C16.7744 25.9222 17.2225 24.0822 18.1063 22.3269L18.1307 22.2803L18.1799 22.257C20.0006 21.444 21.9592 21.0322 24.0033 21.0322C25.9072 21.0322 27.9409 21.4906 29.883 22.3604L29.9327 22.3813L29.9558 22.4288C30.8559 24.2187 31.3306 26.1406 31.3306 27.9903C31.3306 29.8326 30.8748 31.6744 29.9736 33.4633L29.9499 33.5102L29.8998 33.5319C28.1068 34.332 26.085 34.7555 24.0532 34.7555ZM18.3785 33.1886C20.2904 34.0366 22.1975 34.4647 24.0532 34.4647C26.0208 34.4647 27.9775 34.0592 29.7195 33.2907C30.5848 31.5573 31.0234 29.7732 31.0234 27.9903C31.0234 26.2 30.5656 24.3379 29.6997 22.6005C27.8149 21.7653 25.8465 21.3223 24.0033 21.3223C22.0244 21.3223 20.1276 21.718 18.3619 22.4987C17.5144 24.1998 17.083 25.9825 17.083 27.8003C17.083 29.6213 17.5312 31.4843 18.3785 33.1886Z" fill="white"/>
<path fill-rule="evenodd" clip-rule="evenodd" d="M25.0542 33.8063L24.9033 32.7041L25.2678 32.6488C25.3565 32.6368 25.4645 32.6523 25.5077 32.7078C25.5555 32.7659 25.5701 32.8139 25.5793 32.89C25.5932 32.9844 25.5659 33.0932 25.4598 33.1474V33.1508C25.5782 33.1508 25.6498 33.2359 25.6706 33.3796C25.6736 33.41 25.6827 33.4832 25.6736 33.5444C25.6495 33.6899 25.5628 33.7368 25.4163 33.7573L25.0542 33.8063ZM25.2888 33.6091C25.332 33.6028 25.3759 33.6005 25.4101 33.5786C25.4627 33.5444 25.4579 33.4712 25.4505 33.4166C25.4323 33.2971 25.4012 33.2516 25.2743 33.2704L25.1945 33.2827L25.2451 33.6151L25.2888 33.6091ZM25.2126 33.0997C25.2608 33.0919 25.3261 33.086 25.3534 33.0402C25.3678 33.0097 25.3859 32.9853 25.3739 32.9173C25.359 32.8367 25.3324 32.7866 25.2299 32.806L25.1345 32.8214L25.1722 33.1038L25.2126 33.0997Z" fill="white"/>
<path fill-rule="evenodd" clip-rule="evenodd" d="M26.8221 32.9319C26.825 32.9524 26.8284 32.9752 26.8297 32.9956C26.8598 33.1961 26.8221 33.3622 26.5907 33.4079C26.2485 33.472 26.183 33.265 26.1229 32.9752L26.0908 32.8182C26.0437 32.5409 26.0234 32.3309 26.3569 32.2661C26.5449 32.2328 26.6692 32.3057 26.7209 32.488C26.7289 32.5152 26.739 32.542 26.7428 32.5695L26.5381 32.6107C26.5145 32.542 26.4832 32.4196 26.3911 32.4299C26.2259 32.4494 26.2805 32.6496 26.2974 32.7334L26.3589 33.0345C26.3774 33.1255 26.4141 33.2709 26.5571 33.2429C26.6732 33.2202 26.6225 33.044 26.6122 32.9717" fill="white"/>
<path fill-rule="evenodd" clip-rule="evenodd" d="M27.2899 33.4196L27.2256 32.3361L27.4755 32.2583L27.9998 33.2006L27.8029 33.2607L27.6787 33.0212L27.4601 33.0882L27.4883 33.3604L27.2899 33.4196ZM27.4418 32.9132L27.5998 32.8665L27.39 32.4281L27.4418 32.9132Z" fill="white"/>
<path fill-rule="evenodd" clip-rule="evenodd" d="M20.0003 32.6417C20.1155 32.3841 20.2185 32.1943 20.6581 32.2785C20.8933 32.3246 21.0391 32.3969 21.0321 32.5879C21.031 32.6304 21.0109 32.6738 20.9978 32.7157L20.7242 32.663C20.7601 32.5574 20.7828 32.4738 20.597 32.4338C20.3821 32.3926 20.3298 32.5747 20.3002 32.6533L20.1889 32.9397C20.1535 33.0248 20.1111 33.1654 20.3002 33.2018C20.4564 33.2311 20.551 33.124 20.6076 32.9675L20.4163 32.932L20.4825 32.7663L20.9325 32.8674L20.7188 33.4196L20.5118 33.3803L20.5584 33.2636H20.5525C20.4571 33.3591 20.3409 33.3691 20.239 33.3553C19.789 33.2704 19.836 33.0648 19.9434 32.7902" fill="white"/>
<path fill-rule="evenodd" clip-rule="evenodd" d="M21.4556 32.8798L21.3254 33.3121L21.0322 33.2678L21.3447 32.2583L21.8444 32.3372C22.137 32.3815 22.2253 32.4726 22.1839 32.6603C22.1603 32.768 22.0844 32.884 21.8991 32.8746L21.8972 32.8729C22.0538 32.9111 22.0671 32.9665 22.0397 33.062C22.0279 33.1027 21.9465 33.3494 22.0027 33.3892L22.0046 33.4196L21.7012 33.3641C21.6886 33.2958 21.7317 33.1728 21.7487 33.1047C21.7656 33.0444 21.793 32.9595 21.7056 32.9277C21.6373 32.9021 21.6118 32.9033 21.5344 32.891L21.4556 32.8798ZM21.5056 32.7234L21.703 32.7606C21.8229 32.7729 21.8896 32.7294 21.9132 32.6279C21.9346 32.535 21.9069 32.4987 21.7993 32.4807L21.5877 32.4506L21.5056 32.7234Z" fill="white"/>
<path fill-rule="evenodd" clip-rule="evenodd" d="M23.0458 32.7053L23.3546 32.7305L23.2216 33.4881C23.157 33.7283 23.0246 33.8332 22.6479 33.8005C22.2646 33.7664 22.1736 33.644 22.1967 33.4019L22.3308 32.645L22.642 32.6699L22.5085 33.4099C22.4942 33.4903 22.4678 33.6094 22.6715 33.6239C22.8523 33.6335 22.8933 33.5494 22.9138 33.445" fill="white"/>
<path fill-rule="evenodd" clip-rule="evenodd" d="M23.3545 33.7915L23.4243 32.645L23.8693 32.6641C24.0797 32.6744 24.1347 32.8443 24.1282 33.0065C24.122 33.1052 24.091 33.2153 24.0041 33.275C23.9329 33.3258 23.8412 33.3379 23.7564 33.3338L23.6114 33.3258L23.5824 33.8063L23.3545 33.7915ZM23.6178 33.151L23.7357 33.1575C23.8315 33.1609 23.895 33.1235 23.9033 32.9843C23.908 32.8507 23.8568 32.828 23.7327 32.8226L23.6394 32.8194L23.6178 33.151Z" fill="white"/>
<path fill-rule="evenodd" clip-rule="evenodd" d="M55.484 23.4236L53.6819 26.4927C53.0017 25.9743 52.1713 25.593 51.1115 25.593C48.6037 25.593 47.585 27.3469 47.585 28.5824C47.585 29.4997 48.225 30.8527 50.4564 30.8527C51.3931 30.8527 52.7245 30.2414 53.1077 29.9632L51.3255 33.5238C50.476 33.6829 50.1968 33.7815 49.4778 33.8023C45.4838 33.9142 43.87 31.612 43.8711 29.2598C43.8739 26.1501 46.8203 22.3682 51.7052 22.3682C52.0044 22.3682 52.3705 22.4655 52.6836 22.5731L53 22.1934" fill="white"/>
<path fill-rule="evenodd" clip-rule="evenodd" d="M62.7216 22.1934L63.2258 33.4192H59.4731L59.471 31.494H56.912L56.07 33.4192H52L56.255 25.403L55.2955 25.397L57.1184 22.1934H62.7216ZM59.4466 25.6276L57.9999 28.8928H59.4903L59.4466 25.6276Z" fill="white"/>
<path fill-rule="evenodd" clip-rule="evenodd" d="M41.3683 22.1978C43.2144 22.2077 44.2577 23.1714 44.2577 24.5632C44.2577 25.8466 43.1574 26.9824 41.9496 27.5697C43.1931 28.0094 43.3006 29.0884 43.3006 29.8517C43.3006 31.696 41.3763 33.4192 38.8747 33.4192H33.4189L35.5471 25.5178L34.6729 25.5129L36.4599 22.1978C36.4599 22.1978 39.867 22.1878 41.3683 22.1978ZM39.557 26.7474C39.9389 26.7474 40.6132 26.6545 40.7817 25.9438C40.9665 25.1722 40.3337 25.1515 40.0301 25.1515L38.9455 25.147L38.5673 26.7474H39.557ZM38.0236 28.7304L37.5242 30.5746H38.8014C39.3037 30.5746 39.9885 30.3347 40.1563 29.7346C40.322 29.1328 39.8433 28.7304 39.3428 28.7304H38.0236Z" fill="white"/>
</svg>
