<svg width="80" height="56" viewBox="0 0 80 56" fill="none" xmlns="http://www.w3.org/2000/svg">
<rect width="80" height="56" rx="8" fill="#E94E0F"/>
<path fill-rule="evenodd" clip-rule="evenodd" d="M21.136 32.138L23.072 34.5734H18.2789L21.136 32.138ZM20.5272 31.3857L16.7778 34.5808L16.7763 26.7228L20.5272 31.3857ZM29.5486 23.4732C29.5486 23.4732 28.7255 23.0773 27.7693 23.1351C26.6761 23.2005 25.7615 23.6264 25.2358 24.1884C24.9049 24.5414 24.5392 24.9721 24.3555 25.4399C24.0891 26.1165 24.0322 27.0106 24.0322 27.0106C24.0322 27.0106 23.6498 26.681 23.1708 25.7204C22.6138 24.6031 22.4615 23.9263 22.386 23.1542C22.3188 22.4766 22.4243 21.8066 22.4243 21.8066H29.5486V23.4732ZM29.5486 25.7009V30.6556C29.5486 30.6556 29.1057 30.8284 28.7444 30.8284C28.3832 30.8284 27.7679 30.774 27.0534 30.3749C26.344 29.9791 25.9514 29.5002 25.647 29.0663C25.3383 28.6249 25.0834 28.013 25.0076 27.5721C24.9467 27.2194 24.8811 26.3395 25.2358 25.6245C25.4282 25.2364 25.9448 24.5712 26.9393 24.5334C27.7499 24.5018 28.1994 24.7183 28.6114 24.948C29.3955 25.3859 29.5486 25.7009 29.5486 25.7009ZM21.7911 30.3077L23.0761 29.2196C22.6666 28.6881 22.5583 28.4879 22.1005 27.8018C21.6318 27.0996 21.2391 26.327 20.9034 25.4205C20.54 24.4385 20.4522 23.8873 20.4923 23.1542C20.5426 22.2215 20.7514 21.8066 20.7514 21.8066H16.7744L16.7763 23.984C16.7763 23.984 19.8205 27.8594 21.7911 30.3077ZM25.4628 34.5698H29.5486V31.5435C29.5486 31.5435 28.5352 32.0157 27.8764 32.0539C27.4843 32.0771 27.1036 32.0925 26.4895 31.9265C25.8067 31.7422 25.4189 31.5626 24.7861 31.0324C24.2778 30.6071 23.6967 29.9791 23.6967 29.9791L22.4041 31.0739C23.0039 31.8191 23.4468 32.3615 23.5824 32.5075C24.1653 33.1333 24.4124 33.3633 24.805 33.5863C25.1975 33.8098 26.5088 33.7977 26.5088 33.7977L25.4628 34.5698Z" fill="white"/>
<path fill-rule="evenodd" clip-rule="evenodd" d="M60.414 31.6871C60.414 32.5457 60.53 33.957 59.5666 34.3005V34.3577H63.2254V34.3005C62.2627 33.9381 62.3782 32.5457 62.3782 31.6871V24.496C62.3782 23.6378 62.2627 22.2262 63.2254 21.8639V21.8066H59.5666V21.8639C60.5488 22.2262 60.414 23.6187 60.414 24.496V31.6871ZM46.9979 24.496L53.6032 32.7936C54.4503 33.8806 55.0476 34.5104 56.4148 34.9679V24.2671C56.4148 23.1991 56.4148 22.436 57.4164 21.8639V21.8066H54.0268V21.8639C55.0476 22.436 55.028 23.1991 55.028 24.2671V31.4965L47.9802 22.6839L47.7103 22.3024C47.5758 22.1499 47.4989 22.0546 47.4218 21.8258V21.8066H44.6098V21.8639C45.6113 22.436 45.6113 23.1991 45.6113 24.2671V31.8783C45.6113 32.9461 45.6113 33.709 44.5909 34.3005V34.3577H47.9995V34.3005C46.9787 33.709 46.9979 32.9461 46.9979 31.8783V24.496ZM36.231 26.8615V23.1229L37.5209 22.9891C38.6765 22.8747 39.9088 23.5615 39.9088 24.8778C39.9088 26.4419 38.1178 26.8615 36.8665 26.8615H36.231ZM36.231 32.8317V28.1201L37.5787 28.0439C39.2734 27.9485 41.0835 28.7499 41.0835 30.6001C41.0835 32.4121 39.4856 33.1369 37.9061 32.9844L36.231 32.8317ZM34.2665 31.6681C34.2665 32.5457 34.3821 33.9381 33.4189 34.3005V34.3577H36.5965C38.0408 34.3577 39.5625 34.4151 40.9102 33.7665C42.2005 33.156 43.2213 31.8969 43.2213 30.4281C43.2213 28.5591 41.8152 27.4145 40.082 27.0518C41.1799 26.5751 42.0076 25.8504 42.0076 24.5723C42.0076 22.8747 40.5252 21.8066 37.9835 21.8066H33.4189V21.8639C34.4016 22.2262 34.2665 23.6187 34.2665 24.4769V31.6681Z" fill="white"/>
</svg>
