<svg width="80" height="56" viewBox="0 0 80 56" fill="none" xmlns="http://www.w3.org/2000/svg">
<rect width="80" height="56" rx="8" fill="#00529C"/>
<path fill-rule="evenodd" clip-rule="evenodd" d="M29.3438 25.3506H31.847C32.8607 25.3506 33.6164 25.7991 33.6164 26.7433C33.6164 27.4356 33.2661 27.8211 32.6575 28.0253V28.0409C33.3828 28.1908 33.7571 28.5842 33.7571 29.2526C33.7571 30.5667 32.6105 30.8419 31.636 30.8419H29.3438V25.3506ZM30.7937 27.522H31.1995C31.6752 27.522 32.1667 27.404 32.1667 26.9394C32.1667 26.4365 31.6987 26.3889 31.2147 26.3889H30.7937V27.522ZM30.7937 29.8036H31.2233C31.753 29.8036 32.3065 29.7248 32.3065 29.1661C32.3065 28.5687 31.7376 28.5131 31.2384 28.5131H30.7937V29.8036Z" fill="white"/>
<path fill-rule="evenodd" clip-rule="evenodd" d="M35.66 25.3506H37.438L39.5356 30.8419H37.9447L37.5396 29.67H35.4965L35.0674 30.8419H33.5938L35.66 25.3506ZM36.5494 26.4837H36.533L35.8316 28.6317H37.1961L36.5494 26.4837Z" fill="white"/>
<path fill-rule="evenodd" clip-rule="evenodd" d="M39.7373 25.3506H41.5852L43.4256 29.0799H43.4408L43.4178 25.3506H44.7438V30.8419H42.9424L41.0391 27.0893H41.0242L41.0707 30.8419H39.7373V25.3506Z" fill="white"/>
<path fill-rule="evenodd" clip-rule="evenodd" d="M45.2363 25.3506H46.6865V27.5934H46.7022L48.3391 25.3506H50.0864L48.0742 27.9073L50.2423 30.8419H48.3937L46.7022 28.3481H46.6865V30.8419H45.2363V25.3506Z" fill="white"/>
<path fill-rule="evenodd" clip-rule="evenodd" d="M52.04 25.3506H54.5433C55.5567 25.3506 56.3134 25.7991 56.3134 26.7433C56.3134 27.4356 55.9631 27.8211 55.3545 28.0253V28.0409C56.0796 28.1908 56.4539 28.5842 56.4539 29.2526C56.4539 30.5667 55.3075 30.8419 54.3332 30.8419H52.04V25.3506ZM53.4907 27.522H53.8958C54.3717 27.522 54.8625 27.404 54.8625 26.9394C54.8625 26.4365 54.3952 26.3889 53.912 26.3889H53.4907V27.522ZM53.4907 29.8036H53.9198C54.4495 29.8036 55.0035 29.7248 55.0035 29.1661C55.0035 28.5687 54.4343 28.5131 53.9352 28.5131H53.4907V29.8036Z" fill="white"/>
<path fill-rule="evenodd" clip-rule="evenodd" d="M56.7754 25.3506H59.3643C60.331 25.3506 61.119 25.791 61.119 26.7356C61.119 27.4672 60.7758 27.9549 60.0742 28.1199V28.1355C60.5411 28.2617 60.5729 28.6784 60.8458 29.3472L61.3763 30.8419H59.8637L59.5516 29.8512C59.2551 28.907 59.0679 28.6705 58.5298 28.6705H58.2255V30.8419H56.7754V25.3506ZM58.2255 27.6322H58.6079C59.0757 27.6322 59.6686 27.6161 59.6686 26.9947C59.6686 26.4837 59.1612 26.3889 58.6079 26.3889H58.2255V27.6322Z" fill="white"/>
<mask id="mask0_1390_63883" style="mask-type:luminance" maskUnits="userSpaceOnUse" x="16" y="22" width="48" height="12">
<path d="M16.7744 33.6149H63.226V22.5811H16.7744V33.6149Z" fill="#00529C"/>
</mask>
<g mask="url(#mask0_1390_63883)">
<path fill-rule="evenodd" clip-rule="evenodd" d="M61.7754 30.8419H63.2255V25.3506H61.7754V30.8419Z" fill="white"/>
</g>
<mask id="mask1_1390_63883" style="mask-type:luminance" maskUnits="userSpaceOnUse" x="16" y="22" width="48" height="12">
<path d="M16.7744 33.6149H63.226V22.5811H16.7744V33.6149Z" fill="#00529C"/>
</mask>
<g mask="url(#mask1_1390_63883)">
<path fill-rule="evenodd" clip-rule="evenodd" d="M26.0334 22.5811H18.4427C17.5213 22.5811 16.7744 23.3533 16.7744 24.3061V24.3243V31.8903C16.7744 32.8338 17.5076 33.6007 18.4171 33.6149H26.0293C26.9509 33.6149 27.6981 32.8426 27.6981 31.8903L27.7016 24.3061C27.7016 23.3533 26.955 22.5811 26.0334 22.5811ZM19.3451 32.7308L18.9309 32.7353C18.4296 32.7353 18.0233 32.3199 18.0233 31.8072L18.0209 31.7342V24.73L18.0235 24.3528C18.0423 23.8567 18.4159 23.4572 18.9053 23.4572H19.7471C20.5099 23.4572 21.1287 24.1265 21.1287 24.9163C21.1287 25.3066 20.977 25.661 20.7314 25.9186L18.5834 28.1176L20.5966 30.1858C20.8562 30.4557 21.0131 30.8106 21.0131 31.1992C21.0131 32.0452 20.2662 32.7308 19.3451 32.7308ZM25.534 32.7238L21.7807 32.7222C21.7807 32.7222 22.2148 31.7758 22.2148 31.1901C22.2148 30.476 21.9779 29.8379 21.6074 29.4157L20.3236 28.0953L21.634 26.7295C22.0239 26.3595 22.2831 25.7029 22.2831 24.9551C22.2831 24.3629 22.1208 23.8382 21.8595 23.4572H22.769C23.532 23.4572 24.1508 24.1265 24.1508 24.9163C24.1508 25.3066 23.9993 25.661 23.7537 25.9186L21.6468 28.0946L26.0227 32.5967C25.8841 32.6848 25.7092 32.7238 25.534 32.7238ZM26.4506 31.3182L23.3146 28.0937L24.8082 26.5621C25.1125 26.1787 25.3052 25.6009 25.3052 24.9551C25.3052 24.359 25.1405 23.8217 24.8768 23.4405L25.5454 23.4606C26.0467 23.4606 26.453 23.8768 26.453 24.3892L26.4506 31.3182Z" fill="white"/>
</g>
</svg>
