<svg width="80" height="56" viewBox="0 0 80 56" fill="none" xmlns="http://www.w3.org/2000/svg">
<rect width="80" height="56" rx="8" fill="#108DE8"/>
<path fill-rule="evenodd" clip-rule="evenodd" d="M22.8874 21.4435C20.652 21.6549 18.8405 22.8385 17.7402 24.6654C17.0253 25.8525 16.6892 27.2589 16.7928 28.7022C17.0464 32.2332 20.0809 35.2227 23.9648 34.9149C27.4496 34.6387 30.3249 31.5038 30.0304 27.6482C29.9225 26.2365 29.4318 25.0731 28.6454 24.0226C28.2893 23.5469 28.219 23.5392 27.8472 23.1498C27.3861 22.6667 26.4109 22.1122 25.7885 21.8669C24.954 21.5378 23.8915 21.3485 22.8874 21.4435Z" fill="white"/>
<path fill-rule="evenodd" clip-rule="evenodd" d="M19.5687 26.2086C19.484 26.4533 19.5344 29.1741 19.5344 29.6788C19.5344 30.2247 19.4267 30.3952 20.2808 30.6874C22.5423 31.4608 24.7817 28.8384 27.0305 30.1359C27.1348 30.196 27.2617 30.3192 27.2915 30.1201L27.2923 26.62C27.2925 26.2435 27.3261 26.1256 27.0764 25.9518C25.0641 24.5499 22.8853 26.9477 20.8434 26.6787C20.0878 26.5792 19.7749 26.1937 19.5687 26.2086Z" fill="#108DE8"/>
<path fill-rule="evenodd" clip-rule="evenodd" d="M58.8904 31.4775L57.4442 31.4781C57.4378 30.9443 57.4396 30.4084 57.4415 29.873V29.8718C57.4423 29.6196 57.4432 29.3676 57.4432 29.116C57.4432 28.9823 57.4408 28.8407 57.4383 28.6949V28.6944C57.4278 28.0878 57.4161 27.4062 57.5722 26.9012C57.8994 25.8423 58.9243 24.8922 60.3362 24.8975C61.7331 24.9028 62.7945 25.8557 63.0979 26.9301C63.2418 27.4395 63.2309 28.1043 63.2209 28.7086C63.2185 28.8574 63.2161 29.0026 63.2161 29.1408C63.2161 29.2235 63.2161 29.3062 63.2161 29.389C63.2161 29.5219 63.2162 29.6549 63.2162 29.7879C63.2163 30.3495 63.2165 30.912 63.2157 31.4779L61.7701 31.4776L61.7617 30.0685L58.8919 30.068L58.8904 31.4775ZM61.7689 28.6512L58.8918 28.6499C58.8906 28.5691 58.8883 28.4877 58.8861 28.4063L58.8861 28.4061C58.8718 27.8926 58.8576 27.3776 59.1035 26.9891C59.3209 26.6458 59.7274 26.3129 60.3369 26.3153C60.9344 26.3177 61.3598 26.6645 61.5614 26.9958C61.8011 27.3898 61.7882 27.8736 61.7747 28.3814L61.7747 28.3818C61.7723 28.4709 61.7699 28.5609 61.7689 28.6512Z" fill="white"/>
<path fill-rule="evenodd" clip-rule="evenodd" d="M37.4462 30.4909C37.084 30.868 36.0564 31.5266 35.1742 31.4659L32.6455 31.4577L32.6461 24.9182L35.1888 24.9164C35.8928 24.8373 36.9966 25.402 37.4681 25.9128C38.7342 27.2848 38.7039 29.1806 37.4462 30.4909ZM35.2416 30.0499C35.0303 30.0686 34.2611 30.0803 34.0738 30.049L34.073 26.3258C34.2444 26.296 35.0721 26.3089 35.2659 26.3298C35.6198 26.3676 35.8895 26.4943 36.1318 26.6534C37.5921 27.611 36.9786 29.897 35.2416 30.0499Z" fill="white"/>
<path fill-rule="evenodd" clip-rule="evenodd" d="M40.9017 31.4765L42.343 31.4777C42.3433 31.4009 42.3407 31.2825 42.3378 31.1458V31.1457C42.3295 30.7592 42.3181 30.2259 42.3571 30.068L45.2158 30.0684L45.226 31.4768L46.6692 31.4781C46.6641 30.9498 46.6656 30.422 46.6671 29.8954V29.8947C46.6679 29.6431 46.6686 29.3918 46.6686 29.1408C46.6686 29.0088 46.6711 28.8655 46.6737 28.716C46.6844 28.1106 46.6968 27.4029 46.5513 26.9293C45.7254 24.2392 41.8802 24.2201 41.0268 26.9024C40.8713 27.3912 40.8836 28.0887 40.8944 28.695V28.6951C40.897 28.8422 40.8995 28.9839 40.8995 29.116C40.8995 29.3658 40.8976 29.6179 40.8957 29.8706V29.8709C40.8917 30.4077 40.8876 30.9476 40.9017 31.4765ZM42.3439 28.6498L45.2246 28.6513C45.2255 28.5616 45.2278 28.4718 45.2301 28.3824L45.2301 28.3821C45.243 27.8781 45.2556 27.3872 45.0157 26.9946C44.4986 26.1485 43.1836 26.0268 42.5581 26.9905C42.3094 27.3737 42.3242 27.9067 42.3384 28.4207L42.3384 28.421C42.3406 28.4979 42.3427 28.5744 42.3439 28.6498Z" fill="white"/>
<path d="M49.1865 28.4475L49.2062 27.4706C49.1764 27.1526 49.3785 26.6588 49.5048 26.4195C50.582 24.3783 53.5885 24.4054 54.6359 26.4548C54.7607 26.6988 54.9552 27.1796 54.9199 27.4905L54.9311 31.4597L53.5162 31.4587C53.5086 31.3161 53.5108 30.7582 53.5134 30.1075C53.5178 28.9865 53.5234 27.5902 53.4815 27.5676C53.4868 27.2033 53.2113 26.8438 53.0312 26.6859C52.8005 26.4839 52.4836 26.3136 52.0489 26.3152C51.3413 26.3177 50.6418 26.9183 50.6414 27.5642C50.5866 27.6289 50.5967 28.8965 50.6053 29.9784C50.6108 30.666 50.6157 31.2787 50.6029 31.4597L49.1895 31.4589C49.1579 30.9961 49.1689 30.1144 49.1785 29.3451C49.1826 29.0099 49.1865 28.6961 49.1865 28.4475Z" fill="white"/>
</svg>
