<svg width="80" height="56" viewBox="0 0 80 56" fill="none" xmlns="http://www.w3.org/2000/svg">
<rect width="80" height="56" rx="8" fill="#003D79"/>
<path fill-rule="evenodd" clip-rule="evenodd" d="M16.8234 30.6555C16.8234 29.9604 16.8111 29.377 16.7744 28.8568H18.0485L18.1082 29.7505H18.1439C18.4327 29.2782 18.9608 28.7197 19.9458 28.7197C20.7147 28.7197 21.3152 29.1674 21.567 29.8372H21.5917C21.7963 29.5023 22.0357 29.2543 22.3118 29.08C22.6364 28.8445 23.0089 28.7197 23.4893 28.7197C24.462 28.7197 25.4463 29.402 25.4463 31.3378V34.8982H24.0052V31.5615C24.0052 30.5566 23.6694 29.9604 22.9611 29.9604C22.4558 29.9604 22.0831 30.3332 21.928 30.7677C21.8915 30.9161 21.8555 31.1024 21.8555 31.2748V34.8982H20.4139V31.3996C20.4139 30.5566 20.0901 29.9604 19.4054 29.9604C18.8528 29.9604 18.4809 30.4077 18.3485 30.8286C18.288 30.9784 18.2638 31.1517 18.2638 31.325V34.8982H16.8234V30.6555Z" fill="white"/>
<path fill-rule="evenodd" clip-rule="evenodd" d="M31.061 33.4478C31.061 33.9934 31.085 34.5259 31.1451 34.8992H29.8114L29.7157 34.2294H29.6792C29.3191 34.7013 28.7065 35.0357 27.9499 35.0357C26.7726 35.0357 26.1123 34.1556 26.1123 33.237C26.1123 31.7105 27.421 30.942 29.5831 30.9543V30.8546C29.5831 30.4575 29.4268 29.8004 28.394 29.8004C27.8172 29.8004 27.2164 29.9866 26.8203 30.2467L26.5317 29.255C26.9649 28.9815 27.7222 28.7207 28.6463 28.7207C30.5208 28.7207 31.061 29.9497 31.061 31.2642V33.4478ZM29.6191 31.9468C28.5743 31.9218 27.5777 32.1575 27.5777 33.0757C27.5777 33.6706 27.9499 33.944 28.4185 33.944C29.0063 33.944 29.4394 33.5469 29.5711 33.1128C29.6069 33.0012 29.6191 32.8766 29.6191 32.7778V31.9468Z" fill="white"/>
<path fill-rule="evenodd" clip-rule="evenodd" d="M32.0824 30.6555C32.0824 29.9604 32.0692 29.377 32.0342 28.8568H33.3303L33.4027 29.7623H33.4382C33.6908 29.2915 34.3273 28.7197 35.3 28.7197C36.3212 28.7197 37.3781 29.402 37.3781 31.313V34.8982H35.901V31.4871C35.901 30.6181 35.5887 29.9604 34.7839 29.9604C34.1953 29.9604 33.7871 30.3947 33.6305 30.8539C33.5833 30.9907 33.5708 31.1772 33.5708 31.3497V34.8982H32.0824V30.6555Z" fill="white"/>
<path fill-rule="evenodd" clip-rule="evenodd" d="M43.7839 26.4297V33.1986C43.7839 33.8188 43.8075 34.49 43.8317 34.8989H42.5104L42.4512 33.9437H42.4268C42.0783 34.614 41.3685 35.0354 40.5167 35.0354C39.124 35.0354 38.0186 33.8074 38.0186 31.9465C38.0064 29.9241 39.2315 28.7204 40.6366 28.7204C41.4411 28.7204 42.0182 29.0682 42.2819 29.5152H42.3063V26.4297H43.7839ZM42.3063 31.3749C42.3063 31.2521 42.2939 31.1025 42.2708 30.9789C42.1385 30.3833 41.6698 29.8992 40.9971 29.8992C40.0483 29.8992 39.5198 30.7681 39.5198 31.8971C39.5198 33.0009 40.0483 33.8074 40.9851 33.8074C41.5854 33.8074 42.1142 33.3858 42.2582 32.7284C42.2939 32.5913 42.3063 32.4426 42.3063 32.2808V31.3749Z" fill="white"/>
<path fill-rule="evenodd" clip-rule="evenodd" d="M44.8271 34.8985H46.318V28.8574H44.8271V34.8985Z" fill="white"/>
<path fill-rule="evenodd" clip-rule="evenodd" d="M47.3618 30.8047C47.3618 29.9862 47.3493 29.4023 47.3135 28.857H48.5989L48.6459 30.0104H48.6957C48.9835 29.1544 49.6683 28.857 50.2926 28.857C50.4364 28.857 50.5204 28.8316 50.6408 28.857V30.1973C50.5204 30.1725 50.3885 30.1477 50.2084 30.1477C49.4998 30.1477 49.019 30.6187 48.8871 31.3006C48.8637 31.4371 48.8394 31.5991 48.8394 31.7736V34.8988H47.3618V30.8047Z" fill="white"/>
<path fill-rule="evenodd" clip-rule="evenodd" d="M51.3252 34.8985H52.8138V28.8574H51.3252V34.8985Z" fill="white"/>
<path fill-rule="evenodd" clip-rule="evenodd" d="M50.9737 21.5527C50.0795 22.0875 47.9704 23.337 47.1831 23.8023C46.7032 24.0548 45.5918 24.165 44.9633 23.2896C44.952 23.2737 44.1272 22.2093 44.0935 22.1692C44.0699 22.1408 43.5367 21.3239 42.3486 21.2984C42.1731 21.2941 41.3003 21.2893 40.4487 21.7892C39.3167 22.4572 36.6842 24.0118 36.6842 24.0118C36.6842 24.0118 36.6835 24.0132 36.6821 24.0132C35.6 24.6527 34.7568 25.1506 34.7568 25.1506L35.753 26.4144C36.219 27.0121 37.2699 27.4745 38.1813 26.934C38.1813 26.934 41.5486 24.9199 41.561 24.914C43.0173 24.089 44.141 24.089 44.8869 24.396C45.5563 24.6882 46.1388 25.4163 46.1388 25.4163C46.1388 25.4163 46.8999 26.3906 47.0342 26.5611C47.4673 27.1117 48.1841 26.8954 48.1841 26.8954C48.1841 26.8954 48.4498 26.8643 48.8502 26.6187C48.8502 26.6187 52.1119 24.6652 52.114 24.6646C53.1497 24.0369 54.0996 23.9197 54.5851 23.9659C56.1056 24.1086 56.578 25.2059 57.2373 25.9713C57.6256 26.4216 57.976 26.6772 58.5117 26.6644C58.8638 26.6566 59.2615 26.4361 59.3201 26.3963L63.226 24.068C63.226 24.068 62.8252 23.4446 62.0045 22.4745C61.2699 21.609 60.4896 22.0006 59.8676 22.3189C59.6062 22.4524 58.6592 23.1031 57.7211 23.557C57.0526 23.8803 56.0924 23.783 55.5662 23.1114C55.5347 23.0706 54.6834 22.0059 54.5939 21.8749C54.2503 21.4304 53.5798 21.0322 52.7206 21.0322C52.1982 21.0322 51.6054 21.1794 50.9737 21.5527Z" fill="url(#paint0_linear_1390_64309)"/>
<defs>
<linearGradient id="paint0_linear_1390_64309" x1="34.7568" y1="328.089" x2="2881.67" y2="328.089" gradientUnits="userSpaceOnUse">
<stop stop-color="#FFCA06"/>
<stop offset="0.330844" stop-color="#FBAA18"/>
<stop offset="0.694742" stop-color="#FFC907"/>
<stop offset="1" stop-color="#FAA619"/>
</linearGradient>
</defs>
</svg>
