<svg width="80" height="56" viewBox="0 0 80 56" fill="none" xmlns="http://www.w3.org/2000/svg">
<rect width="80" height="56" rx="8" fill="#C82E37"/>
<path fill-rule="evenodd" clip-rule="evenodd" d="M51.4379 28.7326C51.4379 28.2468 51.1334 27.7602 50.549 27.6446V27.6213C51.0169 27.4591 51.3441 27.0193 51.3441 26.5562C51.3441 25.769 50.7359 25.3522 49.6602 25.3522C49.0287 25.3522 48.3738 25.3522 47.953 25.3752V30.2142C48.5844 30.2142 49.1223 30.2372 49.4263 30.2372C50.9465 30.2375 51.4379 29.427 51.4379 28.7326ZM50.3151 26.6951C50.3151 27.1352 49.9874 27.3897 49.3089 27.3897H48.9352V26.1164C49.0988 26.1164 49.2856 26.0931 49.4963 26.0931C50.1045 26.0934 50.3151 26.348 50.3151 26.6951ZM50.4087 28.7557C50.4087 29.1957 50.0815 29.4736 49.4495 29.4736C49.2389 29.4736 49.052 29.4505 48.9354 29.4505V28.0841H49.3562C49.9874 28.0841 50.4087 28.2696 50.4087 28.7557ZM54.9928 30.2145C54.9696 29.9366 54.9696 29.5889 54.9696 29.3116V27.8068C54.9696 27.0426 54.6191 26.5795 53.4493 26.5795C52.9585 26.5795 52.4901 26.6721 52.1158 26.7877L52.2097 27.575C52.5136 27.3897 52.9582 27.2971 53.2854 27.2971C53.8233 27.2971 54.0101 27.4823 54.0101 27.8528V28.0383C52.7475 28.0383 51.8817 28.5014 51.8817 29.3577C51.8817 29.9366 52.2559 30.2841 52.9341 30.2841C53.4958 30.2841 53.9398 30.0062 54.1272 29.6127C54.104 29.7977 54.0802 30.0062 54.0802 30.2147L54.9928 30.2145ZM54.0104 28.7326C54.0104 29.1497 53.6832 29.5889 53.2154 29.5889C52.9582 29.5889 52.7941 29.4505 52.7941 29.219C52.7941 28.9176 53.0047 28.64 54.0104 28.64V28.7326ZM59.0627 30.2145V27.7139C59.0627 27.0889 58.8055 26.5795 57.9637 26.5795C57.3555 26.5795 56.9342 26.8804 56.7005 27.2971C56.7476 27.0889 56.7476 26.811 56.7476 26.6488H55.8587V30.2142H56.7941V28.5008C56.7941 27.8756 57.1916 27.3432 57.6597 27.3432C58.0102 27.3432 58.1275 27.5747 58.1275 27.9454V30.2142L59.0627 30.2145ZM63.226 30.2145L61.8461 28.2926L63.1325 26.6491H61.9629L60.8869 28.1306V24.982H59.9515V30.2145H60.8869V28.4545L62.0329 30.2145H63.226ZM32.8898 27.7139C32.8898 26.0238 31.8373 25.2829 30.4571 25.2829C29.0071 25.2829 27.8376 26.2784 27.8376 27.8525C27.8376 29.3809 28.6326 30.3068 30.27 30.3068C31.7203 30.3071 32.8898 29.3116 32.8898 27.7139ZM31.6034 27.8068C31.6034 28.8946 30.9252 29.2881 30.3403 29.2881C29.4982 29.2881 29.124 28.7096 29.124 27.7602C29.124 26.7647 29.7321 26.3016 30.3636 26.3016C31.1589 26.3016 31.6034 26.811 31.6034 27.8068ZM37.17 30.0986L37.0297 29.1031C36.7722 29.1957 36.3747 29.265 36.094 29.265C35.1351 29.265 34.7141 28.7326 34.7141 27.7832C34.7141 26.9036 35.1819 26.348 36.0472 26.348C36.3747 26.348 36.7022 26.3943 37.0062 26.4869L37.1465 25.4681C36.8193 25.3755 36.4215 25.3525 36.0708 25.3525C34.3166 25.3525 33.3809 26.3943 33.3809 27.9687C33.3809 29.0801 33.9188 30.2841 35.8601 30.2841C36.3047 30.2841 36.7725 30.2145 37.17 30.0986ZM41.8248 28.7096C41.8248 28.2233 41.497 27.7602 40.9591 27.6446V27.6213C41.427 27.436 41.7309 27.0193 41.7309 26.5795C41.7309 25.7692 41.0527 25.3525 39.9067 25.3525C39.2517 25.3525 38.4567 25.3525 37.9653 25.3755V30.2145C38.7371 30.2145 39.322 30.2375 39.6492 30.2375C41.1931 30.2375 41.8248 29.4736 41.8248 28.7096ZM40.4451 26.7417C40.4451 27.1122 40.1406 27.3204 39.5559 27.3204H39.2052V26.2553H39.6963C40.2106 26.2553 40.4451 26.4406 40.4451 26.7417ZM40.5146 28.7326C40.5146 29.1031 40.2106 29.3346 39.6728 29.3346C39.4856 29.3346 39.2985 29.3116 39.2049 29.3116V28.1537H39.6025C40.1641 28.1537 40.5146 28.3392 40.5146 28.7326ZM46.1285 30.0986L45.9881 29.1031C45.7304 29.1957 45.3329 29.265 45.076 29.265C44.1168 29.265 43.6955 28.7326 43.6955 27.7832C43.6955 26.9036 44.1636 26.348 45.0057 26.348C45.3329 26.348 45.6604 26.3943 45.9643 26.4869L46.1047 25.4681C45.7775 25.3755 45.4032 25.3525 45.029 25.3525C43.2747 25.3525 42.3394 26.3943 42.3394 27.9687C42.3394 29.0801 42.8772 30.2841 44.8183 30.2841C45.2861 30.2841 45.7542 30.2145 46.1285 30.0986ZM19.7685 26.2786L17.7336 24.936C18.0611 24.4959 18.4586 24.1025 18.9264 23.8016L20.6806 25.5843C20.3296 25.746 20.0022 25.9775 19.7685 26.2786ZM19.2301 27.5519L16.9145 26.6721C17.0549 26.1164 17.2655 25.607 17.5695 25.1442L19.6512 26.4175C19.4175 26.7417 19.2772 27.1352 19.2301 27.5519ZM22.0138 28.5937L19.5111 27.6446C19.5835 27.2661 19.7436 26.9095 19.9789 26.6028L22.0138 27.8761V28.5937ZM22.0138 27.7602L20.0725 26.4869C20.3064 26.209 20.6106 26.0008 20.9613 25.8619L22.0138 26.9036V27.7602ZM17.0551 29.404C16.8675 28.892 16.7725 28.3513 16.7744 27.8068C16.7744 27.4823 16.7977 27.1815 16.868 26.8804L19.2304 27.7139V27.8065C19.2304 28.3619 19.4175 28.8943 19.7685 29.3113H19.7918C19.5775 28.9371 19.4646 28.5143 19.4643 28.0841C19.4643 27.9915 19.4643 27.8991 19.4876 27.8065L22.0138 28.6858V29.4037L17.0551 29.404ZM17.219 29.844C17.1955 29.7514 17.1487 29.6585 17.1022 29.5662H18.5757L18.8331 29.844H21.0084L20.5406 30.3298H17.8504C17.7801 30.0755 17.523 29.867 17.219 29.844ZM22.7856 29.9594C22.9506 29.8648 23.1071 29.7565 23.2534 29.6355C23.347 29.5659 23.4406 29.4736 23.5106 29.3809C23.8849 28.9409 24.1188 28.4085 24.1188 27.8065C24.1188 27.4872 24.0553 27.1711 23.9319 26.8762C23.8085 26.5812 23.6276 26.3132 23.3995 26.0875C23.1715 25.8617 22.9007 25.6826 22.6027 25.5605C22.3047 25.4383 21.9853 25.3755 21.6628 25.3755C21.3821 25.3755 21.1014 25.4218 20.8675 25.5144L19.1601 23.6391C19.9203 23.2017 20.7835 22.9701 21.6628 22.9678C22.3054 22.9656 22.9421 23.0892 23.5363 23.3316C24.1304 23.574 24.6702 23.9303 25.1246 24.3801C25.579 24.8299 25.9389 25.3642 26.1838 25.9523C26.4286 26.5404 26.5535 27.1707 26.5512 27.8068C26.5512 30.469 24.3759 32.6452 21.6628 32.6452C20.3296 32.6452 19.1133 32.1128 18.2244 31.233H24.2121L24.2588 31.1869L17.9437 30.9318L17.897 30.8858H24.5866L24.6098 30.8392L17.6165 30.5153L17.593 30.4918H20.3064C20.3064 30.492 21.6861 30.5384 22.7856 29.9594Z" fill="white"/>
</svg>
