<svg width="24" height="24" viewBox="0 0 24 24" fill="none" xmlns="http://www.w3.org/2000/svg">
<path d="M4.89998 19.0999C0.999976 15.1999 0.999976 8.7999 4.89998 4.8999" stroke="#8D9199" stroke-width="1.5" stroke-linecap="round" stroke-linejoin="round"/>
<path d="M7.79995 16.2C5.49995 13.9 5.49995 10.1 7.79995 7.69995" stroke="#8D9199" stroke-width="1.5" stroke-linecap="round" stroke-linejoin="round"/>
<path d="M12 14C13.1046 14 14 13.1046 14 12C14 10.8954 13.1046 10 12 10C10.8954 10 10 10.8954 10 12C10 13.1046 10.8954 14 12 14Z" stroke="#8D9199" stroke-width="1.5" stroke-linecap="round" stroke-linejoin="round"/>
<path d="M16.2 7.80005C18.5 10.1 18.5 13.9 16.2 16.3" stroke="#8D9199" stroke-width="1.5" stroke-linecap="round" stroke-linejoin="round"/>
<path d="M19.1 4.8999C23 8.7999 23 15.0999 19.1 18.9999" stroke="#8D9199" stroke-width="1.5" stroke-linecap="round" stroke-linejoin="round"/>
</svg>
