<svg width="429" height="214" viewBox="0 0 429 214" fill="none" xmlns="http://www.w3.org/2000/svg">
<rect width="428" height="214" transform="translate(0.5)" fill="white"/>
<path d="M170.5 107C170.5 82.6995 190.199 63 214.5 63C238.801 63 258.5 82.6995 258.5 107C258.5 131.301 238.801 151 214.5 151C190.199 151 170.5 131.301 170.5 107Z" fill="#1ABA47"/>
<path d="M227.834 97L209.5 115.333L201.167 107" stroke="white" stroke-width="4" stroke-linecap="round" stroke-linejoin="round"/>
<path d="M122.148 37.7646L131.449 42.2582L126.956 51.559L117.655 47.0654L122.148 37.7646Z" fill="#BA1A1A"/>
<path d="M266.324 69.2354L270.999 71.4938L268.74 76.1685L264.066 73.91L266.324 69.2354Z" fill="#FD78FF"/>
<path d="M83.7949 81.8237L88.4696 84.0822L86.2111 88.7569L81.5364 86.4984L83.7949 81.8237Z" fill="#52FF86"/>
<path d="M400.905 55.0737L404.042 56.5894L402.527 59.7265L399.39 58.2109L400.905 55.0737Z" fill="#1ABA47"/>
<path d="M138.126 130.603L141.263 132.119L139.747 135.256L136.61 133.74L138.126 130.603Z" fill="#3F13DC"/>
<path d="M327.746 84.9707L339.045 90.4296L333.586 101.728L322.287 96.2695L327.746 84.9707Z" fill="#00C8FF"/>
<path d="M411.707 132.249L419.17 135.854L415.565 143.318L408.101 139.712L411.707 132.249Z" fill="#65558F"/>
<path d="M40.3594 136.593L47.8227 140.199L44.2169 147.662L36.7536 144.056L40.3594 136.593Z" fill="#F9C700"/>
<path fill-rule="evenodd" clip-rule="evenodd" d="M53.6942 82.5025C54.0898 82.9134 54.0774 83.5674 53.6664 83.963C51.6036 85.9487 48.0281 88.902 43.9568 91.3556C39.9164 93.7907 35.2326 95.8292 30.9947 95.7847C30.4243 95.7787 29.9667 95.3114 29.9727 94.741C29.9787 94.1705 30.4459 93.713 31.0164 93.7189C34.6636 93.7572 38.9374 91.9686 42.8905 89.5862C46.8128 87.2223 50.2671 84.3677 52.2337 82.4746C52.6447 82.079 53.2986 82.0915 53.6942 82.5025Z" fill="#65558F"/>
<path fill-rule="evenodd" clip-rule="evenodd" d="M129.644 119.137C129.089 119.003 128.749 118.444 128.883 117.89C129.808 114.07 129.586 111.334 128.748 109.39C127.919 107.463 126.431 106.182 124.547 105.367C120.701 103.705 115.363 104.069 111.55 104.988C110.996 105.122 110.438 104.781 110.304 104.226C110.17 103.672 110.512 103.114 111.066 102.98C115.044 102.021 120.912 101.546 125.367 103.471C127.632 104.45 129.568 106.069 130.646 108.573C131.716 111.058 131.883 114.282 130.891 118.376C130.757 118.931 130.198 119.271 129.644 119.137Z" fill="#00C8FF"/>
<path fill-rule="evenodd" clip-rule="evenodd" d="M287.8 124.314C287.979 123.772 288.563 123.478 289.105 123.656C294.332 125.378 301.847 129.107 307.421 134.745C313.021 140.409 316.739 148.101 314.008 157.584C313.851 158.133 313.278 158.449 312.73 158.291C312.182 158.133 311.865 157.561 312.023 157.013C314.485 148.464 311.206 141.512 305.951 136.197C300.67 130.855 293.472 127.27 288.458 125.618C287.916 125.44 287.622 124.856 287.8 124.314Z" fill="#E94E0F"/>
<path fill-rule="evenodd" clip-rule="evenodd" d="M369.77 112.086C369.249 111.854 369.014 111.244 369.245 110.723C370.545 107.791 373.124 103.502 376.676 100.101C380.222 96.705 384.883 94.0659 390.29 94.8133C390.855 94.8915 391.25 95.4129 391.172 95.978C391.093 96.5431 390.572 96.9379 390.007 96.8597C385.487 96.2348 381.427 98.4114 378.104 101.593C374.788 104.769 372.35 108.818 371.134 111.56C370.902 112.082 370.292 112.317 369.77 112.086Z" fill="#F9C700"/>
</svg>
