<svg width="24" height="24" viewBox="0 0 24 24" fill="none" xmlns="http://www.w3.org/2000/svg">
<path d="M4 5.99988L10 6M12.5 6H20C21.1046 6 22 6.89543 22 8V16C22 17.1046 21.1046 18 20 18H9.5M2 10H7M3.5 13.9999L7 14M5 18H7" stroke="#8D9199" stroke-width="1.5" stroke-linecap="round" stroke-linejoin="round"/>
<path d="M12 14C13.1046 14 14 13.1046 14 12C14 10.8954 13.1046 10 12 10C10.8954 10 10 10.8954 10 12C10 13.1046 10.8954 14 12 14Z" stroke="#8D9199" stroke-width="1.5" stroke-linecap="round" stroke-linejoin="round"/>
<path d="M18 12H18.01" stroke="#8D9199" stroke-width="1.5" stroke-linecap="round" stroke-linejoin="round"/>
</svg>
